<mxfile host="65bd71144e">
    <diagram name="Page-1" id="7iGbJM-GeaWf6YkV7OkR">
        <mxGraphModel dx="1034" dy="838" grid="1" gridSize="10" guides="1" tooltips="1" connect="1" arrows="1" fold="1" page="1" pageScale="1" pageWidth="850" pageHeight="1100" math="0" shadow="0">
            <root>
                <mxCell id="0"/>
                <mxCell id="1" parent="0"/>
                <mxCell id="gFFgRJj5tVULkwfCmLME-79" value="" style="rounded=0;whiteSpace=wrap;html=1;" parent="1" vertex="1">
                    <mxGeometry x="550" y="80" width="1000" height="600" as="geometry"/>
                </mxCell>
                <mxCell id="gFFgRJj5tVULkwfCmLME-6" style="edgeStyle=none;curved=1;rounded=0;orthogonalLoop=1;jettySize=auto;html=1;fontSize=12;startSize=8;endSize=8;" parent="1" source="f-CAPLGVOWDsQUXiz2W5-3" target="gFFgRJj5tVULkwfCmLME-5" edge="1">
                    <mxGeometry relative="1" as="geometry"/>
                </mxCell>
                <mxCell id="gFFgRJj5tVULkwfCmLME-94" style="edgeStyle=none;curved=1;rounded=0;orthogonalLoop=1;jettySize=auto;html=1;entryX=0.5;entryY=0;entryDx=0;entryDy=0;fontSize=12;startSize=8;endSize=8;exitX=0.5;exitY=1;exitDx=0;exitDy=0;" parent="1" source="gFFgRJj5tVULkwfCmLME-90" target="gFFgRJj5tVULkwfCmLME-93" edge="1">
                    <mxGeometry relative="1" as="geometry"/>
                </mxCell>
                <mxCell id="gFFgRJj5tVULkwfCmLME-95" style="edgeStyle=none;curved=1;rounded=0;orthogonalLoop=1;jettySize=auto;html=1;entryX=0.5;entryY=0;entryDx=0;entryDy=0;fontSize=12;startSize=8;endSize=8;" parent="1" source="f-CAPLGVOWDsQUXiz2W5-3" target="gFFgRJj5tVULkwfCmLME-90" edge="1">
                    <mxGeometry relative="1" as="geometry"/>
                </mxCell>
                <mxCell id="gFFgRJj5tVULkwfCmLME-96" style="edgeStyle=none;curved=1;rounded=0;orthogonalLoop=1;jettySize=auto;html=1;entryX=0.5;entryY=0;entryDx=0;entryDy=0;fontSize=12;startSize=8;endSize=8;" parent="1" source="f-CAPLGVOWDsQUXiz2W5-3" target="gFFgRJj5tVULkwfCmLME-92" edge="1">
                    <mxGeometry relative="1" as="geometry"/>
                </mxCell>
                <mxCell id="f-CAPLGVOWDsQUXiz2W5-3" value="Library" style="rounded=0;whiteSpace=wrap;html=1;" parent="1" vertex="1">
                    <mxGeometry x="240" y="196.45" width="200" height="100" as="geometry"/>
                </mxCell>
                <mxCell id="gFFgRJj5tVULkwfCmLME-1" value="" style="shape=image;verticalLabelPosition=bottom;labelBackgroundColor=default;verticalAlign=top;aspect=fixed;imageAspect=0;image=https://storage.googleapis.com/cms-storage-bucket/a9d6ce81aee44ae017ee.png;" parent="1" vertex="1">
                    <mxGeometry x="400" y="237" width="40" height="58.32" as="geometry"/>
                </mxCell>
                <mxCell id="gFFgRJj5tVULkwfCmLME-34" style="edgeStyle=none;curved=1;rounded=0;orthogonalLoop=1;jettySize=auto;html=1;fontSize=12;startSize=8;endSize=8;entryX=0;entryY=0.5;entryDx=0;entryDy=0;" parent="1" source="gFFgRJj5tVULkwfCmLME-5" target="gFFgRJj5tVULkwfCmLME-33" edge="1">
                    <mxGeometry relative="1" as="geometry">
                        <mxPoint x="1080" y="235" as="targetPoint"/>
                    </mxGeometry>
                </mxCell>
                <mxCell id="gFFgRJj5tVULkwfCmLME-5" value="Spring Gate Way" style="rounded=0;whiteSpace=wrap;html=1;" parent="1" vertex="1">
                    <mxGeometry x="630" y="196.45" width="200" height="100" as="geometry"/>
                </mxCell>
                <mxCell id="gFFgRJj5tVULkwfCmLME-12" value="" style="shape=image;verticalLabelPosition=bottom;labelBackgroundColor=default;verticalAlign=top;aspect=fixed;imageAspect=0;image=data:image/png,iVBORw0KGgoAAAANSUhEUgAAAGQAAABkCAYAAABw4pVUAAAAAXNSR0IArs4c6QAADVZJREFUeAHtXWlwFVkVxnIrHbfSstyt8of+syy1yh+WWjiOkL4dcBaZTcsRnRmEUWvUKi1n0MFyRF53J4R1QGDYh2UcGAcGhgEMr29ngSSQIWFL2HeSkB2y58rXLx27+/XrvV/6hddVSW/3nnvOd/pu55x734QJ+SOPQB6BPAJ5BPII5BHII5BHII9AHoE8Au4QKC6f9gF3KcdJKsYmvGseLfyiSPn7BEqekWT+rxIlCYFyy0VKNgqUvIJrgfKSSLkXRYXMQFoxOeVLW7dOe3eUMMyVuU8KlJREWcaY015SOvFDksJxokIEQSaHBEq6RUqYnz+Bkl6REgUKFCk3ZX7p/R8LU0BB4f8hylzL8upvvjdMumNOa97e+z4qyeRJQeZKBZn0+wHfVR6Z60skyS6RkunF5ZM/HkRw8CxS0o5yJZmfHIRWbPKKSe5eSSabRUp6XAHqs6ZY0pa5PkHmNyTkwm/5AUSk/PMaXSnJr/JDIxZ50CcIlBQKSVKhCTTWZ4FylWjS3AIk7pl0j0C5Zo1vQSY3c7LZQo0QZVKrCRK7s8zToiT/bSfFSDL5nZl39HtO+WLzfr48+TMYDZmFiOt9gnKbMIKyAnDhLu79QpK7bOZdUshqq/Sxe4ZhqCCTDrMAOXDfJMr8o2ZAU8Nqq1Ef1zqnftr7zOljc7+wkvtIghZsyQHgbYfUas3eM+keADundOJ7BMqdySiTzPOxUYCekaIk93VR5hszMh7maCkLtASFHBWShV+WKP+0rUwyt0aPQyyuMSYPMpmzFTgL4GcqX6Bcm0hJk/59cdmPDLULI6+orQOelCwq5PFIJ3ZjqBC9IrTrw1d3sCWVjxuUItGC73gCLarEgszNFGVuSGN2vJ9frpnBhoYH2e6GYoNCYPKJCmPXdCVKHrublIGP7WxrNcPR2FJuUIhAyQnXwEWRsEgu+MGIEc/A2HiuIW83LlaVgX/9Q72spOwBg+xFlHwlCqwdaWI0NR47cLuPac3hZ9jAUN+oQnCx7dgcg0Ikyv3BEbywE8BMLsrkpB3z4+3dooqHWXvPNYMycFN7bZdBISIlB8LG25EeLKXjDXA7eRaU/5hd7TyZpgw8aOu5YlCIQLnBuQcf+IQjiGElyGw+sDIp5P4z9BEX249aKkN7+K+q6QalYKATFt62dIRS8mnNMWP3RY2XdwsrprFL7XUa7hnPbzWUGBQCt7ItkGG9zCWrbdCPYkXVk6zl1sWMStC/ONF0wKCQBCWnwsI8Ix0pSb4nyGQ4qKC5kP/V+tmsd6Bbj7nt9a3+NiZS3qCU4vLCz2UEM+gLePpi7VwKyawyv+x+Vn15Oxtmw7YKsHq5umamQSGR9iNwcebClx2Ex421v2c3b1+ywtrVM7MZJdIQIZEWlAURNs55lx16gr1zbTcbHh5yBXymRIevvmGoIaLMlQdtmSzzq77wkJqEOClmSeVjrOrya2xwqD8Txp6eY55ikq8nkuCHkVAdc2E5e7/uyG/VGgE7VJgHTCpFylQDLoJc+A3Lr9zvQ7hiBZm7bdK8odBceLf68CxGz69lN7pOh6mDNFprD//agI2k8E/4xd4ynyhzT+UC4BqPRcoUtvzQz9mWuufYgbMrGeYH7T3X04CL6sFbjQuMCqEkYQms34cI79SEHYtzsTKVYYK2te459uYpke0/s4yVXdjAqq9sZ3XX96r+CJg1bnSfYZ29zarTKCqw3dAFX3qcEgrZ6Rf7tHyw6GbbJbv04E/Z242LVLCbb533NR9wA1xUac60HjIoBFEqacD6faBGoWdhdIVggT2NC9mljvrYK8Bpwth622T5lUl/aIEP8A/rq1/Y1yXlD6ntfHffzag+2NDptvVctaU5NDzAJJMJpSg56Qt+K4UhH9ZnhK0Ejd5r9S+obb6tdDF72dx9jnX03nDkaunBnxiarVAiUUai1H0vltGAN59Lyh9k9Tf2OQoVxwSVl7a4YgvzHL3cgsI9YvjS/dyklpGF61xCDNO1rgZXQsUtEZrV0rMrXbGV7mPnZ/nRgSGPpJAf6rUc9BoeNSt/tCsJY5AIw+3zbUdccbLzpGioIRIlsw3g+rmRKD8rqBK0/PBHYwibqwc+JHxQbo2PGLZrso+ci/zowJDnDqEXTETNhbi6l5RC119WXBW27djfmHxujWv2DpxbZcZmiQFcPzeizIlhKCR57mXXgsQx4almymCO6ehtcs0eZNZjF4p/XaRkmZ6on2uYPMK2qLpGJYSEcMvCcrDj5DxP1MwKCWVRaBhxV6eaFU+CxCkx+gsYKFE7Wm5d8MSaWSHA0k8rZcgTVCGrqp+OvRnEDmX0GWgV9HG8dun17/afecnQZIkKWW8A189N0CYL4ZW5epy+WalGkCwof4ih2fJ6mIe9osIv9aMDQ54gnTqq+e2BTq9yxCI9hueI4UXtqLi42RdP/67/i6GGYGsPA7h+bu4w5HvYC99FLh6w1KIThzJWVj+VFuXuVqa1R35jVsjYTgzd2nzcCpiNdJ29TerkD8pADc8UWO2GFzR1oKP9SQr5lZ9KYcijbnGkI6oRd3PWVhe5YT4OadBPYBCiyea3qYIssHlpdLRzQuG/bwDXzw1s+BpBr+euvpY44OyKBwTGraj65SiIm47+0bWJxKqAC221o7Q03BLK1M/60YEhjxo6Svkujaj7M8/gpMmFA774RRWPjAKIOC0vM3IrGcsvvjJKT8VM5jqBpQFcvzcSJQfdKyLVZiJ8PxcOBEgggEKTDzG9VzqOB2Z9a93zozRBG7se+cU/LV9qJ7b/d04a83bnuCtkcHhA9WvoZYABtLGlIrAyEAEJt7SetiiTuWnA+n0gUFJgIO6ik8cIJa4H+ot1piEp5Ku58p9QWG4wLZEGbfiV/OKflg8bdYky1+dVKX2Dt0IRMDwiw+zI1Z0MzZJZlrILG0MrZseJeUb6wG5k45o0cP0+kGjBf81CON1f7TwRmpBBCWEFlLldT/HPs6rL24KSH83fM9DFEC+gx0ag/D6/uGfMh80p9YW4uUZo/1gfPQOdDEY+NKFmntFnHL2+J1QW00ZXqeZ9ekZg/b5AsLUoc7fMQtndbz/+91CF9UIM/hf0CfrhrJ5XNFsnm6kXko5p+wd72OLKRw2KR4A6di71i7ttPq/LEbCMGExm8+jua2X0/Dq2WDev0CsC13CYIQY47MOqdmBxrC2oQV5i6m8Wzum+5sobYcudRg9hnQg/3d0wn5n3rjLz9/rxFz0t4kwrLMMDGCStBgsiLZwYBHPHvNgh2iyk3T2WiZn3BMkgk6fH8ORhAocYqWWHfmZoJqz4QW2tufI6Yz4WcTozNsy21P05nYeolrLptSTKPG8lsN2z0rMrnGVykQK+FbT7WFQJ84Zdmfp3iBaJcm0Ihsz68rRrzN/02EVyDXtMQiGHtULdnBF0DO+b1wP9DyzGWHCDiZw5eNmpbMRQnb550GuxntKnNgowrksHXwItqI5EAVZEBYX/rteNA2AvcjJLYCJ5rq1GXYgDa6vexuQEvv49FFF77c3QFnFm0tCJ5qTlcDqFTcR9h1kx/oIfeLb39BKmzeCxe86xG/vVAALsP4V5gR5YL9eoPa/WzWYwW2DLvWiPYdWtm7HGjsWupCWVUz81skOnZxAxVjdvGukFfC0tAEFNwrrwbK0twXI5s69c42fk3I4dvM0fcFbu/czeTcx7ViaGtagJsEllSwmobejP4EFEfLKDDOHPyr1oE7FGDgw6CeD4HiMqjKwQcNc3eDva1shEHSulEJtlN9HU5Mde8V6wiyStuiCUkhMaU05n9CGYRKEfAcAvjUR3mPOhSUPaC+3vBHKlmvB1vEX/c72rkSnn1zOsaTfzlfmea0goUz8cCcheiRbRwq+JLty8u04VpQGChTta55gtJcDOhS//cscx1tBSpi6txsZjWPFkPdu2d87hRwaKk+SrXnGLND32QXHaJhYAWB0bap9Vv0S0zwhOC/fvEXUAAZpOZpXMX7+NQvALPWXcpEjB9UscP+tgt5FyU/dZK32wzUf/5KFpsAHHhSfTF+iZ6GIHb4U87BevrORDMFgmpVRc3JSmEFhnzRsQhwpaJjCDPk8pY0ZWQA1aiKTwD1r9wBfaZ8xutQOBaZZGuaBgRZ0fLlk5/UdeguIWaX61T8nwizoYWa0/8mw0bXrUyqB8V87+PB5GX9iVMyeaIBeKxAb7sRtNea1WGJv7s3vFqPOGshSyHnMur/LHNv2ImUX9RczcqjFcK34RNLbABmEstRt2wTqvpvuxUqBEyVYYUYPInBN54We+s91szVgB7VhuklTB55MTYIbJJHbHERSy3xEgFx1uODSwBS43JbQo9TDByiYtRLPAUjoWm2yizNQ+9ln28GUTYL9lqTufUu4Xaq3xEUvsupbA/kT5feisUaZffu+qfAhOxgRMpNy81K84+1k0NDJ0lrlOrM+QKPknDIFzqqd88K4CMyphE6Xc59UfH5O5mdjqaERZyzHPGZnrLMMzvFN/vi/J3RvpLxNEJWiebh6BPAJ5BPII5BHII5BHII9AHoE8AnkEsojA/wBhXLgnbM0UUwAAAABJRU5ErkJggg==;" parent="1" vertex="1">
                    <mxGeometry x="790" y="255.31999999999994" width="40" height="40" as="geometry"/>
                </mxCell>
                <mxCell id="gFFgRJj5tVULkwfCmLME-86" style="edgeStyle=none;curved=1;rounded=0;orthogonalLoop=1;jettySize=auto;html=1;fontSize=12;startSize=8;endSize=8;entryX=0;entryY=0.5;entryDx=0;entryDy=0;entryPerimeter=0;" parent="1" source="gFFgRJj5tVULkwfCmLME-33" target="gFFgRJj5tVULkwfCmLME-84" edge="1">
                    <mxGeometry relative="1" as="geometry">
                        <mxPoint x="1380" y="245.31999999999994" as="targetPoint"/>
                    </mxGeometry>
                </mxCell>
                <mxCell id="gFFgRJj5tVULkwfCmLME-33" value="Image Processing Service" style="rounded=0;whiteSpace=wrap;html=1;" parent="1" vertex="1">
                    <mxGeometry x="1110" y="195.32" width="200" height="100" as="geometry"/>
                </mxCell>
                <mxCell id="gFFgRJj5tVULkwfCmLME-35" value="" style="shape=image;verticalLabelPosition=bottom;labelBackgroundColor=default;verticalAlign=top;aspect=fixed;imageAspect=0;image=https://upload.wikimedia.org/wikipedia/commons/thumb/1/1a/FastAPI_logo.svg/1280px-FastAPI_logo.svg.png;" parent="1" vertex="1">
                    <mxGeometry x="1200" y="272.32" width="108.11" height="20" as="geometry"/>
                </mxCell>
                <mxCell id="gFFgRJj5tVULkwfCmLME-46" style="edgeStyle=none;curved=1;rounded=0;orthogonalLoop=1;jettySize=auto;html=1;fontSize=12;startSize=8;endSize=8;entryX=0;entryY=0.5;entryDx=0;entryDy=0;entryPerimeter=0;" parent="1" source="gFFgRJj5tVULkwfCmLME-40" target="gFFgRJj5tVULkwfCmLME-41" edge="1">
                    <mxGeometry relative="1" as="geometry">
                        <mxPoint x="1380" y="400" as="targetPoint"/>
                    </mxGeometry>
                </mxCell>
                <mxCell id="gFFgRJj5tVULkwfCmLME-45" value="" style="group" parent="1" vertex="1" connectable="0">
                    <mxGeometry x="1380" y="377.87" width="60" height="80" as="geometry"/>
                </mxCell>
                <mxCell id="gFFgRJj5tVULkwfCmLME-41" value="" style="shape=cylinder3;whiteSpace=wrap;html=1;boundedLbl=1;backgroundOutline=1;size=15;" parent="gFFgRJj5tVULkwfCmLME-45" vertex="1">
                    <mxGeometry width="60" height="80" as="geometry"/>
                </mxCell>
                <mxCell id="gFFgRJj5tVULkwfCmLME-42" value="" style="shape=image;verticalLabelPosition=bottom;labelBackgroundColor=default;verticalAlign=top;aspect=fixed;imageAspect=0;image=https://www.freepnglogos.com/uploads/logo-mysql-png/logo-mysql-mysql-and-moodle-elearningworld-5.png;" parent="gFFgRJj5tVULkwfCmLME-45" vertex="1">
                    <mxGeometry x="10" y="33" width="40" height="26.67" as="geometry"/>
                </mxCell>
                <mxCell id="gFFgRJj5tVULkwfCmLME-47" style="edgeStyle=none;curved=1;rounded=0;orthogonalLoop=1;jettySize=auto;html=1;fontSize=12;startSize=8;endSize=8;exitX=1;exitY=0.5;exitDx=0;exitDy=0;entryX=0;entryY=0.5;entryDx=0;entryDy=0;" parent="1" source="gFFgRJj5tVULkwfCmLME-5" target="gFFgRJj5tVULkwfCmLME-40" edge="1">
                    <mxGeometry relative="1" as="geometry">
                        <mxPoint x="1010" y="240" as="sourcePoint"/>
                        <mxPoint x="1080" y="417.8699999999999" as="targetPoint"/>
                    </mxGeometry>
                </mxCell>
                <mxCell id="gFFgRJj5tVULkwfCmLME-55" value="" style="group" parent="1" vertex="1" connectable="0">
                    <mxGeometry x="1100" y="366" width="200" height="103.74000000000001" as="geometry"/>
                </mxCell>
                <mxCell id="gFFgRJj5tVULkwfCmLME-40" value="Book Service" style="rounded=0;whiteSpace=wrap;html=1;" parent="gFFgRJj5tVULkwfCmLME-55" vertex="1">
                    <mxGeometry width="200" height="100" as="geometry"/>
                </mxCell>
                <mxCell id="gFFgRJj5tVULkwfCmLME-48" value="" style="shape=image;verticalLabelPosition=bottom;labelBackgroundColor=default;verticalAlign=top;aspect=fixed;imageAspect=0;image=data:image/png,iVBORw0KGgoAAAANSUhEUgAAAGQAAABkCAYAAABw4pVUAAAAAXNSR0IArs4c6QAADVZJREFUeAHtXWlwFVkVxnIrHbfSstyt8of+syy1yh+WWjiOkL4dcBaZTcsRnRmEUWvUKi1n0MFyRF53J4R1QGDYh2UcGAcGhgEMr29ngSSQIWFL2HeSkB2y58rXLx27+/XrvV/6hddVSW/3nnvOd/pu55x734QJ+SOPQB6BPAJ5BPII5BHII5BHII9AHoE8Au4QKC6f9gF3KcdJKsYmvGseLfyiSPn7BEqekWT+rxIlCYFyy0VKNgqUvIJrgfKSSLkXRYXMQFoxOeVLW7dOe3eUMMyVuU8KlJREWcaY015SOvFDksJxokIEQSaHBEq6RUqYnz+Bkl6REgUKFCk3ZX7p/R8LU0BB4f8hylzL8upvvjdMumNOa97e+z4qyeRJQeZKBZn0+wHfVR6Z60skyS6RkunF5ZM/HkRw8CxS0o5yJZmfHIRWbPKKSe5eSSabRUp6XAHqs6ZY0pa5PkHmNyTkwm/5AUSk/PMaXSnJr/JDIxZ50CcIlBQKSVKhCTTWZ4FylWjS3AIk7pl0j0C5Zo1vQSY3c7LZQo0QZVKrCRK7s8zToiT/bSfFSDL5nZl39HtO+WLzfr48+TMYDZmFiOt9gnKbMIKyAnDhLu79QpK7bOZdUshqq/Sxe4ZhqCCTDrMAOXDfJMr8o2ZAU8Nqq1Ef1zqnftr7zOljc7+wkvtIghZsyQHgbYfUas3eM+keADundOJ7BMqdySiTzPOxUYCekaIk93VR5hszMh7maCkLtASFHBWShV+WKP+0rUwyt0aPQyyuMSYPMpmzFTgL4GcqX6Bcm0hJk/59cdmPDLULI6+orQOelCwq5PFIJ3ZjqBC9IrTrw1d3sCWVjxuUItGC73gCLarEgszNFGVuSGN2vJ9frpnBhoYH2e6GYoNCYPKJCmPXdCVKHrublIGP7WxrNcPR2FJuUIhAyQnXwEWRsEgu+MGIEc/A2HiuIW83LlaVgX/9Q72spOwBg+xFlHwlCqwdaWI0NR47cLuPac3hZ9jAUN+oQnCx7dgcg0Ikyv3BEbywE8BMLsrkpB3z4+3dooqHWXvPNYMycFN7bZdBISIlB8LG25EeLKXjDXA7eRaU/5hd7TyZpgw8aOu5YlCIQLnBuQcf+IQjiGElyGw+sDIp5P4z9BEX249aKkN7+K+q6QalYKATFt62dIRS8mnNMWP3RY2XdwsrprFL7XUa7hnPbzWUGBQCt7ItkGG9zCWrbdCPYkXVk6zl1sWMStC/ONF0wKCQBCWnwsI8Ix0pSb4nyGQ4qKC5kP/V+tmsd6Bbj7nt9a3+NiZS3qCU4vLCz2UEM+gLePpi7VwKyawyv+x+Vn15Oxtmw7YKsHq5umamQSGR9iNwcebClx2Ex421v2c3b1+ywtrVM7MZJdIQIZEWlAURNs55lx16gr1zbTcbHh5yBXymRIevvmGoIaLMlQdtmSzzq77wkJqEOClmSeVjrOrya2xwqD8Txp6eY55ikq8nkuCHkVAdc2E5e7/uyG/VGgE7VJgHTCpFylQDLoJc+A3Lr9zvQ7hiBZm7bdK8odBceLf68CxGz69lN7pOh6mDNFprD//agI2k8E/4xd4ynyhzT+UC4BqPRcoUtvzQz9mWuufYgbMrGeYH7T3X04CL6sFbjQuMCqEkYQms34cI79SEHYtzsTKVYYK2te459uYpke0/s4yVXdjAqq9sZ3XX96r+CJg1bnSfYZ29zarTKCqw3dAFX3qcEgrZ6Rf7tHyw6GbbJbv04E/Z242LVLCbb533NR9wA1xUac60HjIoBFEqacD6faBGoWdhdIVggT2NC9mljvrYK8Bpwth622T5lUl/aIEP8A/rq1/Y1yXlD6ntfHffzag+2NDptvVctaU5NDzAJJMJpSg56Qt+K4UhH9ZnhK0Ejd5r9S+obb6tdDF72dx9jnX03nDkaunBnxiarVAiUUai1H0vltGAN59Lyh9k9Tf2OQoVxwSVl7a4YgvzHL3cgsI9YvjS/dyklpGF61xCDNO1rgZXQsUtEZrV0rMrXbGV7mPnZ/nRgSGPpJAf6rUc9BoeNSt/tCsJY5AIw+3zbUdccbLzpGioIRIlsw3g+rmRKD8rqBK0/PBHYwibqwc+JHxQbo2PGLZrso+ci/zowJDnDqEXTETNhbi6l5RC119WXBW27djfmHxujWv2DpxbZcZmiQFcPzeizIlhKCR57mXXgsQx4almymCO6ehtcs0eZNZjF4p/XaRkmZ6on2uYPMK2qLpGJYSEcMvCcrDj5DxP1MwKCWVRaBhxV6eaFU+CxCkx+gsYKFE7Wm5d8MSaWSHA0k8rZcgTVCGrqp+OvRnEDmX0GWgV9HG8dun17/afecnQZIkKWW8A189N0CYL4ZW5epy+WalGkCwof4ih2fJ6mIe9osIv9aMDQ54gnTqq+e2BTq9yxCI9hueI4UXtqLi42RdP/67/i6GGYGsPA7h+bu4w5HvYC99FLh6w1KIThzJWVj+VFuXuVqa1R35jVsjYTgzd2nzcCpiNdJ29TerkD8pADc8UWO2GFzR1oKP9SQr5lZ9KYcijbnGkI6oRd3PWVhe5YT4OadBPYBCiyea3qYIssHlpdLRzQuG/bwDXzw1s+BpBr+euvpY44OyKBwTGraj65SiIm47+0bWJxKqAC221o7Q03BLK1M/60YEhjxo6Svkujaj7M8/gpMmFA774RRWPjAKIOC0vM3IrGcsvvjJKT8VM5jqBpQFcvzcSJQfdKyLVZiJ8PxcOBEgggEKTDzG9VzqOB2Z9a93zozRBG7se+cU/LV9qJ7b/d04a83bnuCtkcHhA9WvoZYABtLGlIrAyEAEJt7SetiiTuWnA+n0gUFJgIO6ik8cIJa4H+ot1piEp5Ku58p9QWG4wLZEGbfiV/OKflg8bdYky1+dVKX2Dt0IRMDwiw+zI1Z0MzZJZlrILG0MrZseJeUb6wG5k45o0cP0+kGjBf81CON1f7TwRmpBBCWEFlLldT/HPs6rL24KSH83fM9DFEC+gx0ag/D6/uGfMh80p9YW4uUZo/1gfPQOdDEY+NKFmntFnHL2+J1QW00ZXqeZ9ekZg/b5AsLUoc7fMQtndbz/+91CF9UIM/hf0CfrhrJ5XNFsnm6kXko5p+wd72OLKRw2KR4A6di71i7ttPq/LEbCMGExm8+jua2X0/Dq2WDev0CsC13CYIQY47MOqdmBxrC2oQV5i6m8Wzum+5sobYcudRg9hnQg/3d0wn5n3rjLz9/rxFz0t4kwrLMMDGCStBgsiLZwYBHPHvNgh2iyk3T2WiZn3BMkgk6fH8ORhAocYqWWHfmZoJqz4QW2tufI6Yz4WcTozNsy21P05nYeolrLptSTKPG8lsN2z0rMrnGVykQK+FbT7WFQJ84Zdmfp3iBaJcm0Ihsz68rRrzN/02EVyDXtMQiGHtULdnBF0DO+b1wP9DyzGWHCDiZw5eNmpbMRQnb550GuxntKnNgowrksHXwItqI5EAVZEBYX/rteNA2AvcjJLYCJ5rq1GXYgDa6vexuQEvv49FFF77c3QFnFm0tCJ5qTlcDqFTcR9h1kx/oIfeLb39BKmzeCxe86xG/vVAALsP4V5gR5YL9eoPa/WzWYwW2DLvWiPYdWtm7HGjsWupCWVUz81skOnZxAxVjdvGukFfC0tAEFNwrrwbK0twXI5s69c42fk3I4dvM0fcFbu/czeTcx7ViaGtagJsEllSwmobejP4EFEfLKDDOHPyr1oE7FGDgw6CeD4HiMqjKwQcNc3eDva1shEHSulEJtlN9HU5Mde8V6wiyStuiCUkhMaU05n9CGYRKEfAcAvjUR3mPOhSUPaC+3vBHKlmvB1vEX/c72rkSnn1zOsaTfzlfmea0goUz8cCcheiRbRwq+JLty8u04VpQGChTta55gtJcDOhS//cscx1tBSpi6txsZjWPFkPdu2d87hRwaKk+SrXnGLND32QXHaJhYAWB0bap9Vv0S0zwhOC/fvEXUAAZpOZpXMX7+NQvALPWXcpEjB9UscP+tgt5FyU/dZK32wzUf/5KFpsAHHhSfTF+iZ6GIHb4U87BevrORDMFgmpVRc3JSmEFhnzRsQhwpaJjCDPk8pY0ZWQA1aiKTwD1r9wBfaZ8xutQOBaZZGuaBgRZ0fLlk5/UdeguIWaX61T8nwizoYWa0/8mw0bXrUyqB8V87+PB5GX9iVMyeaIBeKxAb7sRtNea1WGJv7s3vFqPOGshSyHnMur/LHNv2ImUX9RczcqjFcK34RNLbABmEstRt2wTqvpvuxUqBEyVYYUYPInBN54We+s91szVgB7VhuklTB55MTYIbJJHbHERSy3xEgFx1uODSwBS43JbQo9TDByiYtRLPAUjoWm2yizNQ+9ln28GUTYL9lqTufUu4Xaq3xEUvsupbA/kT5feisUaZffu+qfAhOxgRMpNy81K84+1k0NDJ0lrlOrM+QKPknDIFzqqd88K4CMyphE6Xc59UfH5O5mdjqaERZyzHPGZnrLMMzvFN/vi/J3RvpLxNEJWiebh6BPAJ5BPII5BHII5BHII9AHoE8AnkEsojA/wBhXLgnbM0UUwAAAABJRU5ErkJggg==;" parent="gFFgRJj5tVULkwfCmLME-55" vertex="1">
                    <mxGeometry x="160" y="63.74000000000001" width="40" height="40" as="geometry"/>
                </mxCell>
                <mxCell id="gFFgRJj5tVULkwfCmLME-65" value="" style="shape=image;verticalLabelPosition=bottom;labelBackgroundColor=default;verticalAlign=top;aspect=fixed;imageAspect=0;image=https://miro.medium.com/v2/resize:fit:700/0*qXO6eT0gFer_4tK8.png;" parent="1" vertex="1">
                    <mxGeometry x="1430" y="590.31" width="115.41" height="89.69" as="geometry"/>
                </mxCell>
                <mxCell id="gFFgRJj5tVULkwfCmLME-76" value="" style="shape=image;verticalLabelPosition=bottom;labelBackgroundColor=default;verticalAlign=top;aspect=fixed;imageAspect=0;image=https://1000logos.net/wp-content/uploads/2021/11/Docker-Logo-2013.png;" parent="1" vertex="1">
                    <mxGeometry x="1270" y="589.9799999999999" width="160" height="90.02" as="geometry"/>
                </mxCell>
                <mxCell id="gFFgRJj5tVULkwfCmLME-16" style="edgeStyle=none;curved=1;rounded=0;orthogonalLoop=1;jettySize=auto;html=1;entryX=0.5;entryY=0;entryDx=0;entryDy=0;fontSize=12;startSize=8;endSize=8;" parent="1" source="gFFgRJj5tVULkwfCmLME-5" target="gFFgRJj5tVULkwfCmLME-13" edge="1">
                    <mxGeometry relative="1" as="geometry">
                        <mxPoint x="824.9999999999998" y="430" as="targetPoint"/>
                    </mxGeometry>
                </mxCell>
                <mxCell id="gFFgRJj5tVULkwfCmLME-70" value="" style="group" parent="1" vertex="1" connectable="0">
                    <mxGeometry x="1020" y="520" width="60" height="80" as="geometry"/>
                </mxCell>
                <mxCell id="gFFgRJj5tVULkwfCmLME-71" value="" style="shape=cylinder3;whiteSpace=wrap;html=1;boundedLbl=1;backgroundOutline=1;size=15;" parent="gFFgRJj5tVULkwfCmLME-70" vertex="1">
                    <mxGeometry width="60" height="80" as="geometry"/>
                </mxCell>
                <mxCell id="gFFgRJj5tVULkwfCmLME-72" value="" style="shape=image;verticalLabelPosition=bottom;labelBackgroundColor=default;verticalAlign=top;aspect=fixed;imageAspect=0;image=https://www.freepnglogos.com/uploads/logo-mysql-png/logo-mysql-mysql-and-moodle-elearningworld-5.png;" parent="gFFgRJj5tVULkwfCmLME-70" vertex="1">
                    <mxGeometry x="10" y="33" width="40" height="26.67" as="geometry"/>
                </mxCell>
                <mxCell id="gFFgRJj5tVULkwfCmLME-74" style="edgeStyle=none;curved=1;rounded=0;orthogonalLoop=1;jettySize=auto;html=1;exitX=1;exitY=0.5;exitDx=0;exitDy=0;fontSize=12;startSize=8;endSize=8;entryX=0;entryY=0.5;entryDx=0;entryDy=0;entryPerimeter=0;" parent="1" source="gFFgRJj5tVULkwfCmLME-13" target="gFFgRJj5tVULkwfCmLME-71" edge="1">
                    <mxGeometry relative="1" as="geometry"/>
                </mxCell>
                <mxCell id="gFFgRJj5tVULkwfCmLME-13" value="User Service" style="rounded=0;whiteSpace=wrap;html=1;" parent="1" vertex="1">
                    <mxGeometry x="740" y="510" width="200" height="100" as="geometry"/>
                </mxCell>
                <mxCell id="gFFgRJj5tVULkwfCmLME-81" value="" style="shape=image;verticalLabelPosition=bottom;labelBackgroundColor=default;verticalAlign=top;aspect=fixed;imageAspect=0;image=data:image/png,iVBORw0KGgoAAAANSUhEUgAAAGQAAABkCAYAAABw4pVUAAAAAXNSR0IArs4c6QAADVZJREFUeAHtXWlwFVkVxnIrHbfSstyt8of+syy1yh+WWjiOkL4dcBaZTcsRnRmEUWvUKi1n0MFyRF53J4R1QGDYh2UcGAcGhgEMr29ngSSQIWFL2HeSkB2y58rXLx27+/XrvV/6hddVSW/3nnvOd/pu55x734QJ+SOPQB6BPAJ5BPII5BHII5BHII9AHoE8Au4QKC6f9gF3KcdJKsYmvGseLfyiSPn7BEqekWT+rxIlCYFyy0VKNgqUvIJrgfKSSLkXRYXMQFoxOeVLW7dOe3eUMMyVuU8KlJREWcaY015SOvFDksJxokIEQSaHBEq6RUqYnz+Bkl6REgUKFCk3ZX7p/R8LU0BB4f8hylzL8upvvjdMumNOa97e+z4qyeRJQeZKBZn0+wHfVR6Z60skyS6RkunF5ZM/HkRw8CxS0o5yJZmfHIRWbPKKSe5eSSabRUp6XAHqs6ZY0pa5PkHmNyTkwm/5AUSk/PMaXSnJr/JDIxZ50CcIlBQKSVKhCTTWZ4FylWjS3AIk7pl0j0C5Zo1vQSY3c7LZQo0QZVKrCRK7s8zToiT/bSfFSDL5nZl39HtO+WLzfr48+TMYDZmFiOt9gnKbMIKyAnDhLu79QpK7bOZdUshqq/Sxe4ZhqCCTDrMAOXDfJMr8o2ZAU8Nqq1Ef1zqnftr7zOljc7+wkvtIghZsyQHgbYfUas3eM+keADundOJ7BMqdySiTzPOxUYCekaIk93VR5hszMh7maCkLtASFHBWShV+WKP+0rUwyt0aPQyyuMSYPMpmzFTgL4GcqX6Bcm0hJk/59cdmPDLULI6+orQOelCwq5PFIJ3ZjqBC9IrTrw1d3sCWVjxuUItGC73gCLarEgszNFGVuSGN2vJ9frpnBhoYH2e6GYoNCYPKJCmPXdCVKHrublIGP7WxrNcPR2FJuUIhAyQnXwEWRsEgu+MGIEc/A2HiuIW83LlaVgX/9Q72spOwBg+xFlHwlCqwdaWI0NR47cLuPac3hZ9jAUN+oQnCx7dgcg0Ikyv3BEbywE8BMLsrkpB3z4+3dooqHWXvPNYMycFN7bZdBISIlB8LG25EeLKXjDXA7eRaU/5hd7TyZpgw8aOu5YlCIQLnBuQcf+IQjiGElyGw+sDIp5P4z9BEX249aKkN7+K+q6QalYKATFt62dIRS8mnNMWP3RY2XdwsrprFL7XUa7hnPbzWUGBQCt7ItkGG9zCWrbdCPYkXVk6zl1sWMStC/ONF0wKCQBCWnwsI8Ix0pSb4nyGQ4qKC5kP/V+tmsd6Bbj7nt9a3+NiZS3qCU4vLCz2UEM+gLePpi7VwKyawyv+x+Vn15Oxtmw7YKsHq5umamQSGR9iNwcebClx2Ex421v2c3b1+ywtrVM7MZJdIQIZEWlAURNs55lx16gr1zbTcbHh5yBXymRIevvmGoIaLMlQdtmSzzq77wkJqEOClmSeVjrOrya2xwqD8Txp6eY55ikq8nkuCHkVAdc2E5e7/uyG/VGgE7VJgHTCpFylQDLoJc+A3Lr9zvQ7hiBZm7bdK8odBceLf68CxGz69lN7pOh6mDNFprD//agI2k8E/4xd4ynyhzT+UC4BqPRcoUtvzQz9mWuufYgbMrGeYH7T3X04CL6sFbjQuMCqEkYQms34cI79SEHYtzsTKVYYK2te459uYpke0/s4yVXdjAqq9sZ3XX96r+CJg1bnSfYZ29zarTKCqw3dAFX3qcEgrZ6Rf7tHyw6GbbJbv04E/Z242LVLCbb533NR9wA1xUac60HjIoBFEqacD6faBGoWdhdIVggT2NC9mljvrYK8Bpwth622T5lUl/aIEP8A/rq1/Y1yXlD6ntfHffzag+2NDptvVctaU5NDzAJJMJpSg56Qt+K4UhH9ZnhK0Ejd5r9S+obb6tdDF72dx9jnX03nDkaunBnxiarVAiUUai1H0vltGAN59Lyh9k9Tf2OQoVxwSVl7a4YgvzHL3cgsI9YvjS/dyklpGF61xCDNO1rgZXQsUtEZrV0rMrXbGV7mPnZ/nRgSGPpJAf6rUc9BoeNSt/tCsJY5AIw+3zbUdccbLzpGioIRIlsw3g+rmRKD8rqBK0/PBHYwibqwc+JHxQbo2PGLZrso+ci/zowJDnDqEXTETNhbi6l5RC119WXBW27djfmHxujWv2DpxbZcZmiQFcPzeizIlhKCR57mXXgsQx4almymCO6ehtcs0eZNZjF4p/XaRkmZ6on2uYPMK2qLpGJYSEcMvCcrDj5DxP1MwKCWVRaBhxV6eaFU+CxCkx+gsYKFE7Wm5d8MSaWSHA0k8rZcgTVCGrqp+OvRnEDmX0GWgV9HG8dun17/afecnQZIkKWW8A189N0CYL4ZW5epy+WalGkCwof4ih2fJ6mIe9osIv9aMDQ54gnTqq+e2BTq9yxCI9hueI4UXtqLi42RdP/67/i6GGYGsPA7h+bu4w5HvYC99FLh6w1KIThzJWVj+VFuXuVqa1R35jVsjYTgzd2nzcCpiNdJ29TerkD8pADc8UWO2GFzR1oKP9SQr5lZ9KYcijbnGkI6oRd3PWVhe5YT4OadBPYBCiyea3qYIssHlpdLRzQuG/bwDXzw1s+BpBr+euvpY44OyKBwTGraj65SiIm47+0bWJxKqAC221o7Q03BLK1M/60YEhjxo6Svkujaj7M8/gpMmFA774RRWPjAKIOC0vM3IrGcsvvjJKT8VM5jqBpQFcvzcSJQfdKyLVZiJ8PxcOBEgggEKTDzG9VzqOB2Z9a93zozRBG7se+cU/LV9qJ7b/d04a83bnuCtkcHhA9WvoZYABtLGlIrAyEAEJt7SetiiTuWnA+n0gUFJgIO6ik8cIJa4H+ot1piEp5Ku58p9QWG4wLZEGbfiV/OKflg8bdYky1+dVKX2Dt0IRMDwiw+zI1Z0MzZJZlrILG0MrZseJeUb6wG5k45o0cP0+kGjBf81CON1f7TwRmpBBCWEFlLldT/HPs6rL24KSH83fM9DFEC+gx0ag/D6/uGfMh80p9YW4uUZo/1gfPQOdDEY+NKFmntFnHL2+J1QW00ZXqeZ9ekZg/b5AsLUoc7fMQtndbz/+91CF9UIM/hf0CfrhrJ5XNFsnm6kXko5p+wd72OLKRw2KR4A6di71i7ttPq/LEbCMGExm8+jua2X0/Dq2WDev0CsC13CYIQY47MOqdmBxrC2oQV5i6m8Wzum+5sobYcudRg9hnQg/3d0wn5n3rjLz9/rxFz0t4kwrLMMDGCStBgsiLZwYBHPHvNgh2iyk3T2WiZn3BMkgk6fH8ORhAocYqWWHfmZoJqz4QW2tufI6Yz4WcTozNsy21P05nYeolrLptSTKPG8lsN2z0rMrnGVykQK+FbT7WFQJ84Zdmfp3iBaJcm0Ihsz68rRrzN/02EVyDXtMQiGHtULdnBF0DO+b1wP9DyzGWHCDiZw5eNmpbMRQnb550GuxntKnNgowrksHXwItqI5EAVZEBYX/rteNA2AvcjJLYCJ5rq1GXYgDa6vexuQEvv49FFF77c3QFnFm0tCJ5qTlcDqFTcR9h1kx/oIfeLb39BKmzeCxe86xG/vVAALsP4V5gR5YL9eoPa/WzWYwW2DLvWiPYdWtm7HGjsWupCWVUz81skOnZxAxVjdvGukFfC0tAEFNwrrwbK0twXI5s69c42fk3I4dvM0fcFbu/czeTcx7ViaGtagJsEllSwmobejP4EFEfLKDDOHPyr1oE7FGDgw6CeD4HiMqjKwQcNc3eDva1shEHSulEJtlN9HU5Mde8V6wiyStuiCUkhMaU05n9CGYRKEfAcAvjUR3mPOhSUPaC+3vBHKlmvB1vEX/c72rkSnn1zOsaTfzlfmea0goUz8cCcheiRbRwq+JLty8u04VpQGChTta55gtJcDOhS//cscx1tBSpi6txsZjWPFkPdu2d87hRwaKk+SrXnGLND32QXHaJhYAWB0bap9Vv0S0zwhOC/fvEXUAAZpOZpXMX7+NQvALPWXcpEjB9UscP+tgt5FyU/dZK32wzUf/5KFpsAHHhSfTF+iZ6GIHb4U87BevrORDMFgmpVRc3JSmEFhnzRsQhwpaJjCDPk8pY0ZWQA1aiKTwD1r9wBfaZ8xutQOBaZZGuaBgRZ0fLlk5/UdeguIWaX61T8nwizoYWa0/8mw0bXrUyqB8V87+PB5GX9iVMyeaIBeKxAb7sRtNea1WGJv7s3vFqPOGshSyHnMur/LHNv2ImUX9RczcqjFcK34RNLbABmEstRt2wTqvpvuxUqBEyVYYUYPInBN54We+s91szVgB7VhuklTB55MTYIbJJHbHERSy3xEgFx1uODSwBS43JbQo9TDByiYtRLPAUjoWm2yizNQ+9ln28GUTYL9lqTufUu4Xaq3xEUvsupbA/kT5feisUaZffu+qfAhOxgRMpNy81K84+1k0NDJ0lrlOrM+QKPknDIFzqqd88K4CMyphE6Xc59UfH5O5mdjqaERZyzHPGZnrLMMzvFN/vi/J3RvpLxNEJWiebh6BPAJ5BPII5BHII5BHII9AHoE8AnkEsojA/wBhXLgnbM0UUwAAAABJRU5ErkJggg==;" parent="1" vertex="1">
                    <mxGeometry x="900" y="570" width="40" height="40" as="geometry"/>
                </mxCell>
                <mxCell id="gFFgRJj5tVULkwfCmLME-83" value="" style="group" parent="1" vertex="1" connectable="0">
                    <mxGeometry x="1380" y="206.45" width="60" height="80" as="geometry"/>
                </mxCell>
                <mxCell id="gFFgRJj5tVULkwfCmLME-84" value="" style="shape=cylinder3;whiteSpace=wrap;html=1;boundedLbl=1;backgroundOutline=1;size=15;" parent="gFFgRJj5tVULkwfCmLME-83" vertex="1">
                    <mxGeometry width="60" height="80" as="geometry"/>
                </mxCell>
                <mxCell id="gFFgRJj5tVULkwfCmLME-85" value="" style="shape=image;verticalLabelPosition=bottom;labelBackgroundColor=default;verticalAlign=top;aspect=fixed;imageAspect=0;image=https://www.freepnglogos.com/uploads/logo-mysql-png/logo-mysql-mysql-and-moodle-elearningworld-5.png;" parent="gFFgRJj5tVULkwfCmLME-83" vertex="1">
                    <mxGeometry x="10" y="33" width="40" height="26.67" as="geometry"/>
                </mxCell>
                <mxCell id="gFFgRJj5tVULkwfCmLME-100" style="edgeStyle=none;curved=1;rounded=0;orthogonalLoop=1;jettySize=auto;html=1;entryX=0.5;entryY=0;entryDx=0;entryDy=0;fontSize=12;startSize=8;endSize=8;exitX=0.5;exitY=1;exitDx=0;exitDy=0;" parent="1" source="gFFgRJj5tVULkwfCmLME-90" target="gFFgRJj5tVULkwfCmLME-97" edge="1">
                    <mxGeometry relative="1" as="geometry"/>
                </mxCell>
                <mxCell id="gFFgRJj5tVULkwfCmLME-90" value="หนังสือ" style="ellipse;whiteSpace=wrap;html=1;" parent="1" vertex="1">
                    <mxGeometry x="250" y="360" width="120" height="80" as="geometry"/>
                </mxCell>
                <mxCell id="gFFgRJj5tVULkwfCmLME-101" style="edgeStyle=none;curved=1;rounded=0;orthogonalLoop=1;jettySize=auto;html=1;entryX=0.5;entryY=0;entryDx=0;entryDy=0;fontSize=12;startSize=8;endSize=8;" parent="1" source="gFFgRJj5tVULkwfCmLME-92" target="gFFgRJj5tVULkwfCmLME-97" edge="1">
                    <mxGeometry relative="1" as="geometry"/>
                </mxCell>
                <mxCell id="gFFgRJj5tVULkwfCmLME-102" style="edgeStyle=none;curved=1;rounded=0;orthogonalLoop=1;jettySize=auto;html=1;entryX=0.5;entryY=0;entryDx=0;entryDy=0;fontSize=12;startSize=8;endSize=8;exitX=0.5;exitY=1;exitDx=0;exitDy=0;" parent="1" source="gFFgRJj5tVULkwfCmLME-92" target="gFFgRJj5tVULkwfCmLME-98" edge="1">
                    <mxGeometry relative="1" as="geometry"/>
                </mxCell>
                <mxCell id="gFFgRJj5tVULkwfCmLME-103" style="edgeStyle=none;curved=1;rounded=0;orthogonalLoop=1;jettySize=auto;html=1;entryX=0.5;entryY=0;entryDx=0;entryDy=0;fontSize=12;startSize=8;endSize=8;exitX=0.5;exitY=1;exitDx=0;exitDy=0;" parent="1" source="gFFgRJj5tVULkwfCmLME-92" target="gFFgRJj5tVULkwfCmLME-93" edge="1">
                    <mxGeometry relative="1" as="geometry"/>
                </mxCell>
                <mxCell id="gFFgRJj5tVULkwfCmLME-92" value="User" style="ellipse;whiteSpace=wrap;html=1;" parent="1" vertex="1">
                    <mxGeometry x="100" y="360" width="120" height="80" as="geometry"/>
                </mxCell>
                <mxCell id="gFFgRJj5tVULkwfCmLME-93" value="คืน" style="ellipse;whiteSpace=wrap;html=1;" parent="1" vertex="1">
                    <mxGeometry x="370" y="520" width="120" height="80" as="geometry"/>
                </mxCell>
                <mxCell id="gFFgRJj5tVULkwfCmLME-97" value="อ่าน" style="ellipse;whiteSpace=wrap;html=1;" parent="1" vertex="1">
                    <mxGeometry x="80" y="520" width="120" height="80" as="geometry"/>
                </mxCell>
                <mxCell id="gFFgRJj5tVULkwfCmLME-98" value="ยืม" style="ellipse;whiteSpace=wrap;html=1;" parent="1" vertex="1">
                    <mxGeometry x="220" y="520" width="120" height="80" as="geometry"/>
                </mxCell>
                <mxCell id="gFFgRJj5tVULkwfCmLME-99" style="edgeStyle=none;curved=1;rounded=0;orthogonalLoop=1;jettySize=auto;html=1;fontSize=12;startSize=8;endSize=8;exitX=0.5;exitY=1;exitDx=0;exitDy=0;" parent="1" source="gFFgRJj5tVULkwfCmLME-90" target="gFFgRJj5tVULkwfCmLME-98" edge="1">
                    <mxGeometry relative="1" as="geometry">
                        <mxPoint x="500" y="570" as="sourcePoint"/>
                        <mxPoint x="650" y="620" as="targetPoint"/>
                    </mxGeometry>
                </mxCell>
                <mxCell id="2" value="" style="shape=image;verticalLabelPosition=bottom;labelBackgroundColor=default;verticalAlign=top;aspect=fixed;imageAspect=0;image=https://upload.wikimedia.org/wikipedia/commons/thumb/e/e9/Jenkins_logo.svg/1200px-Jenkins_logo.svg.png;" vertex="1" parent="1">
                    <mxGeometry x="1229.06" y="610" width="50" height="69.05" as="geometry"/>
                </mxCell>
                <mxCell id="3" value="" style="shape=image;verticalLabelPosition=bottom;labelBackgroundColor=default;verticalAlign=top;aspect=fixed;imageAspect=0;image=https://upload.wikimedia.org/wikipedia/commons/thumb/9/93/Amazon_Web_Services_Logo.svg/2560px-Amazon_Web_Services_Logo.svg.png;" vertex="1" parent="1">
                    <mxGeometry x="1120" y="610" width="100" height="59.92" as="geometry"/>
                </mxCell>
            </root>
        </mxGraphModel>
    </diagram>
</mxfile>